<mxfile host="app.diagrams.net" modified="2024-02-27T15:39:02.514Z" agent="Mozilla/5.0 (X11; Ubuntu; Linux x86_64; rv:109.0) Gecko/20100101 Firefox/116.0" etag="Mg7BDr85iEHqwpGAAP3_" version="23.1.7" type="github">
  <diagram name="Page-1" id="Jtu7l2riXO6fCj7KywLi">
    <mxGraphModel dx="1362" dy="795" grid="1" gridSize="10" guides="1" tooltips="1" connect="1" arrows="1" fold="1" page="1" pageScale="1" pageWidth="850" pageHeight="1100" math="0" shadow="0">
      <root>
        <mxCell id="0" />
        <mxCell id="1" parent="0" />
        <mxCell id="zM8ChRk5vcqzzWNnv-Rv-1" value="" style="rounded=0;whiteSpace=wrap;html=1;labelBackgroundColor=none;fillColor=#d5e8d4;strokeColor=#82b366;" parent="1" vertex="1">
          <mxGeometry x="70" y="100" width="690" height="270" as="geometry" />
        </mxCell>
        <mxCell id="zM8ChRk5vcqzzWNnv-Rv-3" value="Buffer Pool" style="text;html=1;align=center;verticalAlign=middle;whiteSpace=wrap;rounded=0;fontColor=#393C56;" parent="1" vertex="1">
          <mxGeometry x="320" y="120" width="145" height="20" as="geometry" />
        </mxCell>
        <mxCell id="zM8ChRk5vcqzzWNnv-Rv-4" value="&lt;h1&gt;LRU算法优缺点&lt;br&gt;&lt;/h1&gt;&lt;p&gt;管理 clean page 和 dirty page&lt;/p&gt;&lt;p&gt;&lt;br&gt;&lt;/p&gt;&lt;p&gt;缺点：&lt;/p&gt;&lt;p&gt;当发生全表扫描时，如果将数据放入到lru头部时，会将真正的热点数据覆盖。&lt;/p&gt;&lt;p&gt;改进措施：&lt;/p&gt;&lt;p&gt;将数据放入LRU连表中间位置，不会影响热点数据，&lt;br&gt;&lt;/p&gt;" style="text;html=1;spacing=5;spacingTop=-20;whiteSpace=wrap;overflow=hidden;rounded=0;fontColor=#393C56;" parent="1" vertex="1">
          <mxGeometry x="90" y="490" width="690" height="230" as="geometry" />
        </mxCell>
        <mxCell id="mdVPJ-yCepu3xSWqzpOk-1" value="" style="rounded=0;whiteSpace=wrap;html=1;fillColor=#d5e8d4;strokeColor=#82b366;" vertex="1" parent="1">
          <mxGeometry x="100" y="890" width="70" height="30" as="geometry" />
        </mxCell>
        <mxCell id="mdVPJ-yCepu3xSWqzpOk-11" value="" style="rounded=0;whiteSpace=wrap;html=1;fillColor=#d5e8d4;strokeColor=#82b366;" vertex="1" parent="1">
          <mxGeometry x="170" y="890" width="70" height="30" as="geometry" />
        </mxCell>
        <mxCell id="mdVPJ-yCepu3xSWqzpOk-12" value="" style="rounded=0;whiteSpace=wrap;html=1;fillColor=#d5e8d4;strokeColor=#82b366;" vertex="1" parent="1">
          <mxGeometry x="240" y="890" width="70" height="30" as="geometry" />
        </mxCell>
        <mxCell id="mdVPJ-yCepu3xSWqzpOk-13" value="" style="rounded=0;whiteSpace=wrap;html=1;fillColor=#d5e8d4;strokeColor=#82b366;" vertex="1" parent="1">
          <mxGeometry x="310" y="890" width="70" height="30" as="geometry" />
        </mxCell>
        <mxCell id="mdVPJ-yCepu3xSWqzpOk-14" value="" style="rounded=0;whiteSpace=wrap;html=1;fillColor=#d5e8d4;strokeColor=#82b366;" vertex="1" parent="1">
          <mxGeometry x="380" y="890" width="70" height="30" as="geometry" />
        </mxCell>
        <mxCell id="mdVPJ-yCepu3xSWqzpOk-15" value="" style="rounded=0;whiteSpace=wrap;html=1;fillColor=#d5e8d4;strokeColor=#82b366;" vertex="1" parent="1">
          <mxGeometry x="450" y="890" width="70" height="30" as="geometry" />
        </mxCell>
        <mxCell id="mdVPJ-yCepu3xSWqzpOk-16" value="" style="rounded=0;whiteSpace=wrap;html=1;fillColor=#d5e8d4;strokeColor=#82b366;" vertex="1" parent="1">
          <mxGeometry x="520" y="890" width="70" height="30" as="geometry" />
        </mxCell>
        <mxCell id="mdVPJ-yCepu3xSWqzpOk-17" value="" style="rounded=0;whiteSpace=wrap;html=1;fillColor=#e1d5e7;strokeColor=#9673a6;" vertex="1" parent="1">
          <mxGeometry x="590" y="890" width="70" height="30" as="geometry" />
        </mxCell>
        <mxCell id="mdVPJ-yCepu3xSWqzpOk-18" value="" style="rounded=0;whiteSpace=wrap;html=1;fillColor=#e1d5e7;strokeColor=#9673a6;" vertex="1" parent="1">
          <mxGeometry x="660" y="890" width="70" height="30" as="geometry" />
        </mxCell>
        <mxCell id="mdVPJ-yCepu3xSWqzpOk-19" value="" style="rounded=0;whiteSpace=wrap;html=1;fillColor=#e1d5e7;strokeColor=#9673a6;" vertex="1" parent="1">
          <mxGeometry x="730" y="890" width="70" height="30" as="geometry" />
        </mxCell>
        <mxCell id="mdVPJ-yCepu3xSWqzpOk-20" value="new 区域 63%" style="text;html=1;align=center;verticalAlign=middle;resizable=0;points=[];autosize=1;strokeColor=none;fillColor=none;" vertex="1" parent="1">
          <mxGeometry x="280" y="838" width="100" height="30" as="geometry" />
        </mxCell>
        <mxCell id="mdVPJ-yCepu3xSWqzpOk-21" value="OLD区域，37%" style="text;html=1;align=center;verticalAlign=middle;resizable=0;points=[];autosize=1;strokeColor=none;fillColor=none;" vertex="1" parent="1">
          <mxGeometry x="620" y="838" width="110" height="30" as="geometry" />
        </mxCell>
        <mxCell id="mdVPJ-yCepu3xSWqzpOk-22" value="再次加入数据的时候，就不再从中间加入了，而是从中间&amp;nbsp; midpoint区域开始加入" style="text;html=1;align=center;verticalAlign=middle;whiteSpace=wrap;rounded=0;" vertex="1" parent="1">
          <mxGeometry x="150" y="960" width="260" height="80" as="geometry" />
        </mxCell>
        <mxCell id="mdVPJ-yCepu3xSWqzpOk-23" value="改进型&amp;nbsp; LRU算法 链表数据结构" style="text;html=1;align=center;verticalAlign=middle;resizable=0;points=[];autosize=1;strokeColor=none;fillColor=none;" vertex="1" parent="1">
          <mxGeometry x="100" y="778" width="190" height="30" as="geometry" />
        </mxCell>
      </root>
    </mxGraphModel>
  </diagram>
</mxfile>
